<?xml version="1.0" standalone="no"?>
<!DOCTYPE svg PUBLIC "-//W3C//DTD SVG 20010904//EN">
<svg version="1.0" xmlns="http://www.w3.org/2000/svg"
 width="512.000000pt" height="512.000000pt" viewBox="0 0 512.000000 512.000000"
 preserveAspectRatio="xMidYMid meet">
<g transform="translate(0.000000,512.000000) scale(0.100000,-0.100000)"
fill="#000000" stroke="none">
<path d="M2409 4945 c-298 -57 -643 -285 -901 -596 -369 -446 -599 -1011 -685
-1684 -25 -196 -25 -648 0 -825 149 -1063 787 -1680 1737 -1680 292 0 527 51
769 166 156 74 266 150 390 269 254 245 418 535 516 920 64 250 79 382 79 720
1 317 -6 414 -50 655 -116 633 -374 1174 -750 1569 -226 238 -509 416 -754
476 -94 23 -260 28 -351 10z"/>
</g>
</svg>
